<?xml version="1.0" encoding="UTF-8" standalone="no"?>
<!DOCTYPE svg PUBLIC "-//W3C//DTD SVG 1.1//EN" "http://www.w3.org/Graphics/SVG/1.1/DTD/svg11.dtd">
<!-- Generated by Microsoft Visio, SVG Export repo-package-relationship.svg Page-1 -->
<svg xmlns="http://www.w3.org/2000/svg" xmlns:xlink="http://www.w3.org/1999/xlink" xmlns:ev="http://www.w3.org/2001/xml-events"
		xmlns:v="http://schemas.microsoft.com/visio/2003/SVGExtensions/" width="2.44083in" height="1.25333in"
		viewBox="0 0 175.74 90.24" xml:space="preserve" color-interpolation-filters="sRGB" class="st8">
	<v:documentProperties v:langID="1033" v:viewMarkup="false"/>

	<style type="text/css">
	<![CDATA[
		.st1 {fill:#ffffff}
		.st2 {stroke:#000000;stroke-linecap:round;stroke-linejoin:round;stroke-width:0.24}
		.st3 {fill:#000000;font-family:Calibri;font-size:0.666664em;font-weight:bold}
		.st4 {fill:none}
		.st5 {fill:#ffffff;stroke:none;stroke-linecap:butt;stroke-width:7.2}
		.st6 {fill:#000000;font-family:Calibri;font-size:0.666664em}
		.st7 {fill:#000000}
		.st8 {fill:none;fill-rule:evenodd;font-size:12px;overflow:visible;stroke-linecap:square;stroke-miterlimit:3}
	]]>
	</style>

	<g v:mID="0" v:index="1" v:groupContext="foregroundPage">
		<title>Page-1</title>
		<v:pageProperties v:drawingScale="1" v:pageScale="1" v:drawingUnits="19" v:shadowOffsetX="9" v:shadowOffsetY="-9"/>
		<g id="group345-1" transform="translate(0.12,-54.12)" v:mID="345" v:groupContext="group">
			<v:userDefs>
				<v:ud v:nameU="F" v:val="VT0(1):26"/>
				<v:ud v:nameU="Format" v:val="VT0(0):26"/>
				<v:ud v:nameU="ActiveObject" v:prompt="0,0626" v:val="VT0(0):26"/>
			</v:userDefs>
			<title>Class.260</title>
			<g id="shape346-2" v:mID="346" v:groupContext="shape" transform="translate(72,7.10543E-14)">
				<title>Sheet.346</title>
				<path d="M0 90.24 L0 54.24 L0 90.24 Z" class="st1"/>
			</g>
			<g id="shape347-5" v:mID="347" v:groupContext="shape">
				<title>Sheet.347</title>
				<path d="M72 90.24 L0 90.24 L72 90.24 Z" class="st1"/>
			</g>
			<g id="shape348-8" v:mID="348" v:groupContext="shape">
				<title>Sheet.348</title>
				<path d="M72 90.24 L0 90.24 L72 90.24 Z" class="st1"/>
			</g>
			<g id="shape349-11" v:mID="349" v:groupContext="shape">
				<title>Sheet.349</title>
				<path d="M72 90.24 L0 90.24 L72 90.24 Z" class="st1"/>
			</g>
			<g id="shape350-14" v:mID="350" v:groupContext="shape">
				<title>Sheet.350</title>
				<desc>Repository</desc>
				<v:userDefs>
					<v:ud v:nameU="TabSize" v:val="VT0(0.125):0"/>
				</v:userDefs>
				<v:textBlock v:margins="rect(4,4,4,4)"/>
				<v:textRect cx="36" cy="72.24" width="72" height="36"/>
				<path d="M72 90.24 L72 54.24 L0 54.24 L0 90.24 L72 90.24 ZM0 90.24 L0 54.24 L0 90.24 ZM72 54.24 L72 90.24 L72 54.24
							 Z" class="st1"/>
				<path d="M72 90.24 L72 54.24" class="st2"/>
				<path d="M0 90.24 L0 54.24" class="st2"/>
				<path d="M0 54.24 L72 54.24" class="st2"/>
				<path d="M0 90.24 L72 90.24" class="st2"/>
				<text x="18.01" y="74.64" class="st3" v:langID="1033"><v:paragraph v:horizAlign="1"/><v:tabList/>Repository</text>			</g>
		</g>
		<g id="group351-21" transform="translate(103.62,-54.12)" v:mID="351" v:groupContext="group">
			<v:userDefs>
				<v:ud v:nameU="F" v:val="VT0(1):26"/>
				<v:ud v:nameU="Format" v:val="VT0(0):26"/>
				<v:ud v:nameU="ActiveObject" v:prompt="0,0626" v:val="VT0(0):26"/>
			</v:userDefs>
			<title>Class.266</title>
			<g id="shape352-22" v:mID="352" v:groupContext="shape" transform="translate(72,7.10543E-14)">
				<title>Sheet.352</title>
				<path d="M0 90.24 L0 54.24 L0 90.24 Z" class="st1"/>
			</g>
			<g id="shape353-25" v:mID="353" v:groupContext="shape">
				<title>Sheet.353</title>
				<path d="M72 90.24 L0 90.24 L72 90.24 Z" class="st1"/>
			</g>
			<g id="shape354-28" v:mID="354" v:groupContext="shape">
				<title>Sheet.354</title>
				<path d="M72 90.24 L0 90.24 L72 90.24 Z" class="st1"/>
			</g>
			<g id="shape355-31" v:mID="355" v:groupContext="shape">
				<title>Sheet.355</title>
				<path d="M72 90.24 L0 90.24 L72 90.24 Z" class="st1"/>
			</g>
			<g id="shape356-34" v:mID="356" v:groupContext="shape">
				<title>Sheet.356</title>
				<desc>Primary Package</desc>
				<v:userDefs>
					<v:ud v:nameU="TabSize" v:val="VT0(0.125):0"/>
				</v:userDefs>
				<v:textBlock v:margins="rect(4,4,4,4)"/>
				<v:textRect cx="36" cy="72.24" width="72" height="36"/>
				<path d="M72 90.24 L72 54.24 L0 54.24 L0 90.24 L72 90.24 ZM0 90.24 L0 54.24 L0 90.24 ZM72 54.24 L72 90.24 L72 54.24
							 Z" class="st1"/>
				<path d="M72 90.24 L72 54.24" class="st2"/>
				<path d="M0 90.24 L0 54.24" class="st2"/>
				<path d="M0 54.24 L72 54.24" class="st2"/>
				<path d="M0 90.24 L72 90.24" class="st2"/>
				<text x="8.44" y="74.64" class="st3" v:langID="1033"><v:paragraph v:horizAlign="1"/><v:tabList/>Primary Package</text>			</g>
		</g>
		<g id="group357-41" transform="translate(72.12,-63.12)" v:mID="357" v:groupContext="group">
			<v:userDefs>
				<v:ud v:nameU="BeginAngle" v:prompt="" v:val="VT0(0):32"/>
				<v:ud v:nameU="EndAngle" v:prompt="" v:val="VT0(0):32"/>
				<v:ud v:nameU="RealBeginX" v:val="VT0(0):1"/>
				<v:ud v:nameU="RealBeginY" v:val="VT0(0.125):1"/>
				<v:ud v:nameU="EndX" v:val="VT0(-1):1"/>
				<v:ud v:nameU="EndY" v:val="VT0(-0.125):1"/>
				<v:ud v:nameU="BeginArrowSize" v:val="VT0(0.17333333333333):29"/>
				<v:ud v:nameU="EndSize" v:val="VT0(0.17333333333333):29"/>
				<v:ud v:nameU="FillColor" v:prompt="Association = 0, Composition = 2, Aggregation = 1, Namespace = 3"
						v:val="VT0(0):26"/>
				<v:ud v:nameU="Navigability" v:prompt="Position of first &#60;--- or -X----" v:val="VT0(0):1"/>
				<v:ud v:nameU="NonNavigability" v:prompt="Position of first &#60;--- or -X----" v:val="VT0(0.125):1"/>
				<v:ud v:nameU="BeginArrow" v:prompt="No Arrow = 0, Arrow = 1" v:val="VT0(0):26"/>
				<v:ud v:nameU="SetBeginArrow" v:val="VT0(0):26"/>
				<v:ud v:nameU="SetEndArrow" v:val="VT0(0):26"/>
				<v:ud v:nameU="BeginDot" v:prompt="No Dot = 0; Dot = 1" v:val="VT0(0):26"/>
				<v:ud v:nameU="SetBeginArrow42" v:val="VT0(0):26"/>
				<v:ud v:nameU="EndX" v:prompt="" v:val="VT0(-0.4375):1"/>
				<v:ud v:nameU="FillColor" v:prompt="" v:val="VT0(1):26"/>
				<v:ud v:nameU="Navigability" v:prompt="" v:val="VT0(0.17333333333333):29"/>
				<v:ud v:nameU="NonNavigability" v:prompt="" v:val="VT0(0.125):29"/>
			</v:userDefs>
			<title>Straight Relationship.272</title>
			<g id="shape358-42" v:mID="358" v:groupContext="shape" transform="translate(18.9397,-12.5714)">
				<title>Sheet.358</title>
				<desc>1</desc>
				<v:textBlock v:margins="rect(4,4,4,4)"/>
				<v:textRect cx="3.5603" cy="84.8114" width="13.87" height="17.6036"/>
				<path d="M0 90.24 L7.12 90.24 L7.12 79.38 L0 79.38 L0 90.24 Z" class="st4"/>
				<rect v:rectContext="textBkgnd" x="1.53302" y="80.0117" width="4.05478" height="9.59985" class="st5"/>
				<text x="1.53" y="87.21" class="st6" v:langID="1033"><v:paragraph v:horizAlign="1"/><v:tabList/>1</text>			</g>
			<g id="shape359-47" v:mID="359" v:groupContext="shape" transform="translate(12.5461,-14.1732)">
				<title>Sheet.359</title>
				<path d="M0 90.24 L2.25 90.24 L2.25 87.99 L0 87.99 L0 90.24 Z" class="st4"/>
			</g>
			<g id="shape360-50" v:mID="360" v:groupContext="shape" transform="translate(12.5461,-1.5732)">
				<title>Sheet.360</title>
				<path d="M0 90.24 L2.25 90.24 L2.25 87.99 L0 87.99 L0 90.24 Z" class="st4"/>
			</g>
			<g id="shape361-53" v:mID="361" v:groupContext="shape" transform="translate(16.7003,-1.5732)">
				<title>Sheet.361</title>
				<path d="M0 90.24 L2.25 90.24 L2.25 87.99 L0 87.99 L0 90.24 Z" class="st4"/>
			</g>
			<g id="shape357-56" v:mID="357" v:groupContext="groupContent">
				<path d="M0 81.24 L6.22 78.07 L12.48 81.24 L6.22 84.41 L0 81.24 Z" class="st7"/>
				<path d="M0 81.24 L31.5 81.24" class="st2"/>
				<path d="M0 81.24 L6.22 78.07 L12.48 81.24 L6.22 84.41 L0 81.24" class="st2"/>
			</g>
		</g>
		<g id="group362-60" transform="translate(103.62,-0.12)" v:mID="362" v:groupContext="group">
			<v:userDefs>
				<v:ud v:nameU="F" v:val="VT0(1):26"/>
				<v:ud v:nameU="Format" v:val="VT0(0):26"/>
				<v:ud v:nameU="ActiveObject" v:prompt="0,0626" v:val="VT0(0):26"/>
			</v:userDefs>
			<title>Class.362</title>
			<g id="shape363-61" v:mID="363" v:groupContext="shape" transform="translate(72,7.10543E-14)">
				<title>Sheet.363</title>
				<path d="M0 90.24 L0 54.24 L0 90.24 Z" class="st1"/>
			</g>
			<g id="shape364-64" v:mID="364" v:groupContext="shape">
				<title>Sheet.364</title>
				<path d="M72 90.24 L0 90.24 L72 90.24 Z" class="st1"/>
			</g>
			<g id="shape365-67" v:mID="365" v:groupContext="shape">
				<title>Sheet.365</title>
				<path d="M72 90.24 L0 90.24 L72 90.24 Z" class="st1"/>
			</g>
			<g id="shape366-70" v:mID="366" v:groupContext="shape">
				<title>Sheet.366</title>
				<path d="M72 90.24 L0 90.24 L72 90.24 Z" class="st1"/>
			</g>
			<g id="shape367-73" v:mID="367" v:groupContext="shape">
				<title>Sheet.367</title>
				<desc>Adopted Packages</desc>
				<v:userDefs>
					<v:ud v:nameU="TabSize" v:val="VT0(0.125):0"/>
				</v:userDefs>
				<v:textBlock v:margins="rect(4,4,4,4)"/>
				<v:textRect cx="36" cy="72.24" width="72" height="36"/>
				<path d="M72 90.24 L72 54.24 L0 54.24 L0 90.24 L72 90.24 ZM0 90.24 L0 54.24 L0 90.24 ZM72 54.24 L72 90.24 L72 54.24
							 Z" class="st1"/>
				<path d="M72 90.24 L72 54.24" class="st2"/>
				<path d="M0 90.24 L0 54.24" class="st2"/>
				<path d="M0 54.24 L72 54.24" class="st2"/>
				<path d="M0 90.24 L72 90.24" class="st2"/>
				<text x="5.5" y="74.64" class="st3" v:langID="1033"><v:paragraph v:horizAlign="1"/><v:tabList/>Adopted Packages</text>			</g>
		</g>
		<g id="group368-80" transform="translate(36.12,-54.12)" v:mID="368" v:groupContext="group">
			<v:userDefs>
				<v:ud v:nameU="BeginAngle" v:prompt="" v:val="VT0(0):32"/>
				<v:ud v:nameU="EndAngle" v:prompt="" v:val="VT0(0):32"/>
				<v:ud v:nameU="RealBeginX" v:val="VT0(0):1"/>
				<v:ud v:nameU="RealBeginY" v:val="VT0(0.125):1"/>
				<v:ud v:nameU="EndX" v:val="VT0(-1):1"/>
				<v:ud v:nameU="EndY" v:val="VT0(-0.125):1"/>
				<v:ud v:nameU="BeginArrowSize" v:val="VT0(0.17333333333333):29"/>
				<v:ud v:nameU="EndSize" v:val="VT0(0.17333333333333):29"/>
				<v:ud v:nameU="FillColor" v:prompt="Association = 0, Composition = 2, Aggregation = 1, Namespace = 3"
						v:val="VT0(0):26"/>
				<v:ud v:nameU="Navigability" v:prompt="Position of first &#60;--- or -X----" v:val="VT0(0):1"/>
				<v:ud v:nameU="NonNavigability" v:prompt="Position of first &#60;--- or -X----" v:val="VT0(0.125):1"/>
				<v:ud v:nameU="BeginArrow" v:prompt="No Arrow = 0, Arrow = 1" v:val="VT0(0):26"/>
				<v:ud v:nameU="SetBeginArrow" v:val="VT0(0):26"/>
				<v:ud v:nameU="SetEndArrow" v:val="VT0(0):26"/>
				<v:ud v:nameU="BeginDot" v:prompt="No Dot = 0; Dot = 1" v:val="VT0(0):26"/>
				<v:ud v:nameU="SetBeginArrow42" v:val="VT0(0):26"/>
				<v:ud v:nameU="BeginAngle" v:prompt="" v:val="VT0(-1.5707963267949):32"/>
				<v:ud v:nameU="RealBeginY" v:prompt="" v:val="VT0(0):1"/>
				<v:ud v:nameU="EndX" v:prompt="" v:val="VT0(-0.9375):1"/>
				<v:ud v:nameU="EndY" v:prompt="" v:val="VT0(0.49999999254942):1"/>
				<v:ud v:nameU="FillColor" v:prompt="" v:val="VT0(1):26"/>
				<v:ud v:nameU="Navigability" v:prompt="" v:val="VT0(1.061360559261E-17):29"/>
				<v:ud v:nameU="NonNavigability" v:prompt="" v:val="VT0(-0.17333333333333):29"/>
			</v:userDefs>
			<title>Straight Relationship.368</title>
			<g id="shape369-81" v:mID="369" v:groupContext="shape" transform="translate(48.1419,35.1286)">
				<title>Sheet.369</title>
				<desc>*</desc>
				<v:textBlock v:margins="rect(4,4,4,4)"/>
				<v:textRect cx="3.52515" cy="84.8114" width="13.8" height="17.6036"/>
				<path d="M0 90.24 L7.05 90.24 L7.05 79.38 L0 79.38 L0 90.24 Z" class="st4"/>
				<rect v:rectContext="textBkgnd" x="1.53302" y="80.0117" width="3.98447" height="9.59985" class="st5"/>
				<text x="1.53" y="87.21" class="st6" v:langID="1033"><v:paragraph v:horizAlign="1"/><v:tabList/>*</text>			</g>
			<g id="shape370-86" v:mID="370" v:groupContext="shape" transform="translate(11.6011,15.1437)">
				<title>Sheet.370</title>
				<path d="M0 90.24 L2.25 90.24 L2.25 87.99 L0 87.99 L0 90.24 Z" class="st4"/>
			</g>
			<g id="shape371-89" v:mID="371" v:groupContext="shape" transform="translate(-13.8547,15.1437)">
				<title>Sheet.371</title>
				<path d="M0 90.24 L2.25 90.24 L2.25 87.99 L0 87.99 L0 90.24 Z" class="st4"/>
			</g>
			<g id="shape372-92" v:mID="372" v:groupContext="shape" transform="translate(50.5403,43.4268)">
				<title>Sheet.372</title>
				<path d="M0 90.24 L2.25 90.24 L2.25 87.99 L0 87.99 L0 90.24 Z" class="st4"/>
			</g>
			<g id="shape368-95" v:mID="368" v:groupContext="groupContent">
				<path d="M0 90.24 L3.17 96.46 L0 102.72 L-3.17 96.46 L0 90.24 Z" class="st7"/>
				<path d="M0 90.24 L0 126.24 L67.5 126.24" class="st2"/>
				<path d="M0 90.24 L3.17 96.46 L0 102.72 L-3.17 96.46 L0 90.24" class="st2"/>
			</g>
		</g>
	</g>
</svg>
