<?xml version="1.0" encoding="UTF-8" standalone="no"?>
<!DOCTYPE svg PUBLIC "-//W3C//DTD SVG 1.1//EN" "http://www.w3.org/Graphics/SVG/1.1/DTD/svg11.dtd">
<!-- Generated by Microsoft Visio, SVG Export repo-package-relationships.svg Page-1 -->
<svg xmlns="http://www.w3.org/2000/svg" xmlns:xlink="http://www.w3.org/1999/xlink" xmlns:ev="http://www.w3.org/2001/xml-events"
		xmlns:v="http://schemas.microsoft.com/visio/2003/SVGExtensions/" width="3.25333in" height="1.12833in"
		viewBox="0 0 234.24 81.24" xml:space="preserve" color-interpolation-filters="sRGB" class="st8">
	<v:documentProperties v:langID="1033" v:viewMarkup="false"/>

	<style type="text/css">
	<![CDATA[
		.st1 {fill:#ffffff}
		.st2 {stroke:#000000;stroke-linecap:round;stroke-linejoin:round;stroke-width:0.24}
		.st3 {fill:#000000;font-family:Calibri;font-size:0.666664em;font-weight:bold}
		.st4 {fill:none}
		.st5 {fill:#ffffff;stroke:none;stroke-linecap:butt}
		.st6 {fill:#000000;font-family:Calibri;font-size:0.666664em}
		.st7 {fill:#000000}
		.st8 {fill:none;fill-rule:evenodd;font-size:12px;overflow:visible;stroke-linecap:square;stroke-miterlimit:3}
	]]>
	</style>

	<g v:mID="0" v:index="1" v:groupContext="foregroundPage">
		<title>Page-1</title>
		<v:pageProperties v:drawingScale="1" v:pageScale="1" v:drawingUnits="19" v:shadowOffsetX="9" v:shadowOffsetY="-9"/>
		<g id="group422-1" transform="translate(162.12,-0.12)" v:mID="422" v:groupContext="group">
			<v:userDefs>
				<v:ud v:nameU="F" v:val="VT0(1):26"/>
				<v:ud v:nameU="Format" v:val="VT0(0):26"/>
				<v:ud v:nameU="ActiveObject" v:prompt="0,0626" v:val="VT0(0):26"/>
			</v:userDefs>
			<title>Class.422</title>
			<g id="shape423-2" v:mID="423" v:groupContext="shape" transform="translate(72,5.68434E-14)">
				<title>Sheet.423</title>
				<path d="M0 81.24 L0 45.24 L0 81.24 Z" class="st1"/>
			</g>
			<g id="shape424-5" v:mID="424" v:groupContext="shape">
				<title>Sheet.424</title>
				<path d="M72 81.24 L0 81.24 L72 81.24 Z" class="st1"/>
			</g>
			<g id="shape425-8" v:mID="425" v:groupContext="shape">
				<title>Sheet.425</title>
				<path d="M72 81.24 L0 81.24 L72 81.24 Z" class="st1"/>
			</g>
			<g id="shape426-11" v:mID="426" v:groupContext="shape">
				<title>Sheet.426</title>
				<path d="M72 81.24 L0 81.24 L72 81.24 Z" class="st1"/>
			</g>
			<g id="shape427-14" v:mID="427" v:groupContext="shape">
				<title>Sheet.427</title>
				<desc>Adopted Packages</desc>
				<v:userDefs>
					<v:ud v:nameU="TabSize" v:val="VT0(0.125):0"/>
				</v:userDefs>
				<v:textBlock v:margins="rect(4,4,4,4)"/>
				<v:textRect cx="36" cy="63.24" width="72" height="36"/>
				<path d="M72 81.24 L72 45.24 L0 45.24 L0 81.24 L72 81.24 ZM0 81.24 L0 45.24 L0 81.24 ZM72 45.24 L72 81.24 L72 45.24
							 Z" class="st1"/>
				<path d="M72 81.24 L72 45.24" class="st2"/>
				<path d="M0 81.24 L0 45.24" class="st2"/>
				<path d="M0 45.24 L72 45.24" class="st2"/>
				<path d="M0 81.24 L72 81.24" class="st2"/>
				<text x="5.5" y="65.64" class="st3" v:langID="1033"><v:paragraph v:horizAlign="1"/><v:tabList/>Adopted Packages</text>			</g>
		</g>
		<g id="group428-21" transform="translate(162.12,-45.12)" v:mID="428" v:groupContext="group">
			<v:userDefs>
				<v:ud v:nameU="F" v:val="VT0(1):26"/>
				<v:ud v:nameU="Format" v:val="VT0(0):26"/>
				<v:ud v:nameU="ActiveObject" v:prompt="0,0626" v:val="VT0(0):26"/>
			</v:userDefs>
			<title>Class.428</title>
			<g id="shape429-22" v:mID="429" v:groupContext="shape" transform="translate(72,5.68434E-14)">
				<title>Sheet.429</title>
				<path d="M0 81.24 L0 45.24 L0 81.24 Z" class="st1"/>
			</g>
			<g id="shape430-25" v:mID="430" v:groupContext="shape">
				<title>Sheet.430</title>
				<path d="M72 81.24 L0 81.24 L72 81.24 Z" class="st1"/>
			</g>
			<g id="shape431-28" v:mID="431" v:groupContext="shape">
				<title>Sheet.431</title>
				<path d="M72 81.24 L0 81.24 L72 81.24 Z" class="st1"/>
			</g>
			<g id="shape432-31" v:mID="432" v:groupContext="shape">
				<title>Sheet.432</title>
				<path d="M72 81.24 L0 81.24 L72 81.24 Z" class="st1"/>
			</g>
			<g id="shape433-34" v:mID="433" v:groupContext="shape">
				<title>Sheet.433</title>
				<desc>Primary Package</desc>
				<v:userDefs>
					<v:ud v:nameU="TabSize" v:val="VT0(0.125):0"/>
				</v:userDefs>
				<v:textBlock v:margins="rect(4,4,4,4)"/>
				<v:textRect cx="36" cy="63.24" width="72" height="36"/>
				<path d="M72 81.24 L72 45.24 L0 45.24 L0 81.24 L72 81.24 ZM0 81.24 L0 45.24 L0 81.24 ZM72 45.24 L72 81.24 L72 45.24
							 Z" class="st1"/>
				<path d="M72 81.24 L72 45.24" class="st2"/>
				<path d="M0 81.24 L0 45.24" class="st2"/>
				<path d="M0 45.24 L72 45.24" class="st2"/>
				<path d="M0 81.24 L72 81.24" class="st2"/>
				<text x="8.44" y="65.64" class="st3" v:langID="1033"><v:paragraph v:horizAlign="1"/><v:tabList/>Primary Package</text>			</g>
		</g>
		<g id="group434-41" transform="translate(0.12,-45.12)" v:mID="434" v:groupContext="group">
			<v:userDefs>
				<v:ud v:nameU="F" v:val="VT0(1):26"/>
				<v:ud v:nameU="Format" v:val="VT0(0):26"/>
				<v:ud v:nameU="ActiveObject" v:prompt="0,0626" v:val="VT0(0):26"/>
			</v:userDefs>
			<title>Class.434</title>
			<g id="shape435-42" v:mID="435" v:groupContext="shape" transform="translate(72,5.68434E-14)">
				<title>Sheet.435</title>
				<path d="M0 81.24 L0 45.24 L0 81.24 Z" class="st1"/>
			</g>
			<g id="shape436-45" v:mID="436" v:groupContext="shape">
				<title>Sheet.436</title>
				<path d="M72 81.24 L0 81.24 L72 81.24 Z" class="st1"/>
			</g>
			<g id="shape437-48" v:mID="437" v:groupContext="shape">
				<title>Sheet.437</title>
				<path d="M72 81.24 L0 81.24 L72 81.24 Z" class="st1"/>
			</g>
			<g id="shape438-51" v:mID="438" v:groupContext="shape">
				<title>Sheet.438</title>
				<path d="M72 81.24 L0 81.24 L72 81.24 Z" class="st1"/>
			</g>
			<g id="shape439-54" v:mID="439" v:groupContext="shape">
				<title>Sheet.439</title>
				<desc>Outcast Repository</desc>
				<v:userDefs>
					<v:ud v:nameU="TabSize" v:val="VT0(0.125):0"/>
				</v:userDefs>
				<v:textBlock v:margins="rect(4,4,4,4)"/>
				<v:textRect cx="36" cy="63.24" width="72" height="36"/>
				<path d="M72 81.24 L72 45.24 L0 45.24 L0 81.24 L72 81.24 ZM0 81.24 L0 45.24 L0 81.24 ZM72 45.24 L72 81.24 L72 45.24
							 Z" class="st1"/>
				<path d="M72 81.24 L72 45.24" class="st2"/>
				<path d="M0 81.24 L0 45.24" class="st2"/>
				<path d="M0 45.24 L72 45.24" class="st2"/>
				<path d="M0 81.24 L72 81.24" class="st2"/>
				<text x="4.23" y="65.64" class="st3" v:langID="1033"><v:paragraph v:horizAlign="1"/><v:tabList/>Outcast Repository</text>			</g>
		</g>
		<g id="group440-61" transform="translate(72.12,-54.12)" v:mID="440" v:groupContext="group">
			<v:userDefs>
				<v:ud v:nameU="BeginAngle" v:prompt="" v:val="VT0(0):32"/>
				<v:ud v:nameU="EndAngle" v:prompt="" v:val="VT0(0):32"/>
				<v:ud v:nameU="RealBeginX" v:val="VT0(0):1"/>
				<v:ud v:nameU="RealBeginY" v:val="VT0(0.125):1"/>
				<v:ud v:nameU="EndX" v:val="VT0(-1):1"/>
				<v:ud v:nameU="EndY" v:val="VT0(-0.125):1"/>
				<v:ud v:nameU="BeginArrowSize" v:val="VT0(0.17333333333333):29"/>
				<v:ud v:nameU="EndSize" v:val="VT0(0.17333333333333):29"/>
				<v:ud v:nameU="FillColor" v:prompt="Association = 0, Composition = 2, Aggregation = 1, Namespace = 3"
						v:val="VT0(0):26"/>
				<v:ud v:nameU="Navigability" v:prompt="Position of first &#60;--- or -X----" v:val="VT0(0):1"/>
				<v:ud v:nameU="NonNavigability" v:prompt="Position of first &#60;--- or -X----" v:val="VT0(0.125):1"/>
				<v:ud v:nameU="BeginArrow" v:prompt="No Arrow = 0, Arrow = 1" v:val="VT0(0):26"/>
				<v:ud v:nameU="SetBeginArrow" v:val="VT0(0):26"/>
				<v:ud v:nameU="SetEndArrow" v:val="VT0(0):26"/>
				<v:ud v:nameU="BeginDot" v:prompt="No Dot = 0; Dot = 1" v:val="VT0(0):26"/>
				<v:ud v:nameU="SetBeginArrow42" v:val="VT0(0):26"/>
				<v:ud v:nameU="EndX" v:prompt="" v:val="VT0(-1.25):1"/>
				<v:ud v:nameU="FillColor" v:prompt="" v:val="VT0(1):26"/>
				<v:ud v:nameU="Navigability" v:prompt="" v:val="VT0(0.17333333333333):29"/>
				<v:ud v:nameU="NonNavigability" v:prompt="" v:val="VT0(0.125):29"/>
			</v:userDefs>
			<title>Straight Relationship.440</title>
			<g id="shape441-62" v:mID="441" v:groupContext="shape" transform="translate(71.0118,-9.87142)">
				<title>Sheet.441</title>
				<desc>1</desc>
				<v:textBlock v:margins="rect(4,4,4,4)"/>
				<v:textRect cx="3.5603" cy="75.8114" width="13.87" height="17.6036"/>
				<path d="M0 81.24 L7.12 81.24 L7.12 70.38 L0 70.38 L0 81.24 Z" class="st4"/>
				<rect v:rectContext="textBkgnd" x="1.53302" y="71.0117" width="4.05478" height="9.59985" class="st5"/>
				<text x="1.53" y="78.21" class="st6" v:langID="1033"><v:paragraph v:horizAlign="1"/><v:tabList/>1</text>			</g>
			<g id="shape442-67" v:mID="442" v:groupContext="shape" transform="translate(14.3011,-14.1732)">
				<title>Sheet.442</title>
				<path d="M0 81.24 L2.25 81.24 L2.25 78.99 L0 78.99 L0 81.24 Z" class="st4"/>
			</g>
			<g id="shape443-70" v:mID="443" v:groupContext="shape" transform="translate(14.3011,-1.5732)">
				<title>Sheet.443</title>
				<path d="M0 81.24 L2.25 81.24 L2.25 78.99 L0 78.99 L0 81.24 Z" class="st4"/>
			</g>
			<g id="shape444-73" v:mID="444" v:groupContext="shape" transform="translate(73.4453,-1.5732)">
				<title>Sheet.444</title>
				<path d="M0 81.24 L2.25 81.24 L2.25 78.99 L0 78.99 L0 81.24 Z" class="st4"/>
			</g>
			<g id="shape440-76" v:mID="440" v:groupContext="groupContent">
				<path d="M0 72.24 L6.22 69.07 L12.48 72.24 L6.22 75.41 L0 72.24 Z" class="st7"/>
				<path d="M0 72.24 L90 72.24" class="st2"/>
				<path d="M0 72.24 L6.22 69.07 L12.48 72.24 L6.22 75.41 L0 72.24" class="st2"/>
			</g>
		</g>
		<g id="group445-80" transform="translate(72.12,-63.12)" v:mID="445" v:groupContext="group">
			<v:userDefs>
				<v:ud v:nameU="BeginAngle" v:prompt="" v:val="VT0(0):32"/>
				<v:ud v:nameU="EndAngle" v:prompt="" v:val="VT0(0):32"/>
				<v:ud v:nameU="RealBeginX" v:val="VT0(0):1"/>
				<v:ud v:nameU="RealBeginY" v:val="VT0(0.125):1"/>
				<v:ud v:nameU="EndX" v:val="VT0(-1):1"/>
				<v:ud v:nameU="EndY" v:val="VT0(-0.125):1"/>
				<v:ud v:nameU="BeginArrowSize" v:val="VT0(0.17333333333333):29"/>
				<v:ud v:nameU="EndSize" v:val="VT0(0.17333333333333):29"/>
				<v:ud v:nameU="FillColor" v:prompt="Association = 0, Composition = 2, Aggregation = 1, Namespace = 3"
						v:val="VT0(0):26"/>
				<v:ud v:nameU="Navigability" v:prompt="Position of first &#60;--- or -X----" v:val="VT0(0):1"/>
				<v:ud v:nameU="NonNavigability" v:prompt="Position of first &#60;--- or -X----" v:val="VT0(0.125):1"/>
				<v:ud v:nameU="BeginArrow" v:prompt="No Arrow = 0, Arrow = 1" v:val="VT0(0):26"/>
				<v:ud v:nameU="SetBeginArrow" v:val="VT0(0):26"/>
				<v:ud v:nameU="SetEndArrow" v:val="VT0(0):26"/>
				<v:ud v:nameU="BeginDot" v:prompt="No Dot = 0; Dot = 1" v:val="VT0(0):26"/>
				<v:ud v:nameU="SetBeginArrow42" v:val="VT0(0):26"/>
				<v:ud v:nameU="RealBeginY" v:prompt="" v:val="VT0(0):1"/>
				<v:ud v:nameU="EndX" v:prompt="" v:val="VT0(-1.25):1"/>
				<v:ud v:nameU="EndY" v:prompt="" v:val="VT0(0.625):1"/>
				<v:ud v:nameU="FillColor" v:prompt="" v:val="VT0(1):26"/>
				<v:ud v:nameU="Navigability" v:prompt="" v:val="VT0(0.17333333333333):29"/>
				<v:ud v:nameU="NonNavigability" v:prompt="" v:val="VT0(0):29"/>
			</v:userDefs>
			<title>Straight Relationship.445</title>
			<g id="shape446-81" v:mID="446" v:groupContext="shape" transform="translate(69.6969,44.1286)">
				<title>Sheet.446</title>
				<desc>*</desc>
				<v:textBlock v:margins="rect(4,4,4,4)"/>
				<v:textRect cx="3.52515" cy="75.8114" width="13.8" height="17.6036"/>
				<path d="M0 81.24 L7.05 81.24 L7.05 70.38 L0 70.38 L0 81.24 Z" class="st4"/>
				<rect v:rectContext="textBkgnd" x="1.53302" y="71.0117" width="3.98447" height="9.59985" class="st5"/>
				<text x="1.53" y="78.21" class="st6" v:langID="1033"><v:paragraph v:horizAlign="1"/><v:tabList/>*</text>			</g>
			<g id="shape447-86" v:mID="447" v:groupContext="shape" transform="translate(15.6511,-5.1732)">
				<title>Sheet.447</title>
				<path d="M0 81.24 L2.25 81.24 L2.25 78.99 L0 78.99 L0 81.24 Z" class="st4"/>
			</g>
			<g id="shape448-89" v:mID="448" v:groupContext="shape" transform="translate(15.6511,7.4268)">
				<title>Sheet.448</title>
				<path d="M0 81.24 L2.25 81.24 L2.25 78.99 L0 78.99 L0 81.24 Z" class="st4"/>
			</g>
			<g id="shape449-92" v:mID="449" v:groupContext="shape" transform="translate(72.0953,52.4268)">
				<title>Sheet.449</title>
				<path d="M0 81.24 L2.25 81.24 L2.25 78.99 L0 78.99 L0 81.24 Z" class="st4"/>
			</g>
			<g id="shape445-95" v:mID="445" v:groupContext="groupContent">
				<path d="M0 81.24 L6.22 78.07 L12.48 81.24 L6.22 84.41 L0 81.24 Z" class="st7"/>
				<path d="M0 81.24 L15.12 81.24 L15.12 126.24 L90 126.24" class="st2"/>
				<path d="M0 81.24 L6.22 78.07 L12.48 81.24 L6.22 84.41 L0 81.24" class="st2"/>
			</g>
		</g>
	</g>
</svg>
